<svg width="211" height="119" viewBox="0 0 211 119" fill="none" xmlns="http://www.w3.org/2000/svg">
<g clip-path="url(#clip0_25_179)">
<path d="M86.9373 28.6604C86.9361 28.7577 86.9015 28.8423 86.8335 28.9143C84.5477 31.3461 82.2747 33.7918 80.0147 36.2514C79.9233 36.35 79.8248 36.4201 79.7193 36.4618" stroke="#4D9C7B" stroke-width="2"/>
<path d="M79.6929 52.089C79.7961 52.0587 79.8934 51.9956 79.9848 51.8995C82.8228 48.8664 87.5802 43.735 94.2572 36.5053" stroke="#4D9C7B" stroke-width="2"/>
<path d="M94.222 52.2653C91.6912 54.8196 89.2635 57.4118 86.939 60.0419" stroke="#4D9C7B" stroke-width="2"/>
<path d="M124.103 60.1481C124.118 59.855 124.207 59.6276 124.37 59.4659C125.367 58.4806 126.338 57.3322 127.331 56.2787C128.425 55.119 129.491 53.9776 130.53 52.8546C130.652 52.7219 130.767 52.5849 130.876 52.4434C130.995 52.288 131.547 53.1788 131.671 53.0676" stroke="#00529B" stroke-width="2"/>
<path d="M131.214 36.6342C131.003 36.7656 130.785 36.9519 130.562 37.1932C126.106 42.0075 121.641 46.813 117.168 51.6096C116.886 51.9115 116.666 52.0379 116.509 51.9886" stroke="#4D779D" stroke-width="2"/>
<path d="M116.878 36.3291C117.08 36.2066 117.271 36.0487 117.451 35.8554C118.422 34.8157 119.384 33.7666 120.339 32.7079C120.564 32.4578 121.181 31.8016 122.192 30.7391C122.814 30.0822 123.412 29.4026 123.985 28.7002" stroke="#9A9B9F" stroke-width="2"/>
<path d="M86.9373 28.6604C86.9361 28.7577 86.9015 28.8423 86.8335 28.9144C84.5477 31.3461 82.2748 33.7918 80.0147 36.2514C79.9233 36.35 79.8248 36.4201 79.7193 36.4618L68.6049 24.6413C68.5719 24.606 68.5274 24.5862 68.4809 24.5862C68.4345 24.5862 68.3899 24.606 68.357 24.6413L50.1652 44.1873C50.0961 44.2618 50.0961 44.3357 50.1652 44.409L68.415 64.008C68.443 64.0381 68.4809 64.055 68.5205 64.055C68.56 64.055 68.598 64.0381 68.626 64.008L79.6929 52.089C79.7961 52.0587 79.8934 51.9956 79.9848 51.8995C82.8228 48.8664 87.5802 43.735 94.2572 36.5053L101.385 44.0831C101.544 44.2511 101.544 44.4197 101.385 44.589L94.222 52.2653C91.6912 54.8196 89.2635 57.4118 86.939 60.0419C86.6026 60.4967 86.2281 60.9288 85.8155 61.3381C85.1918 61.9583 84.7939 62.3645 84.6215 62.5565C84.1175 63.1149 83.6697 63.6037 83.2782 64.0231C78.2423 69.411 73.755 74.2234 69.8164 78.4604C69.446 78.8584 69.0785 79.2531 68.7139 79.6447C68.5674 79.8026 68.4209 79.8026 68.2743 79.6447L35.6449 44.5966C35.5031 44.445 35.4972 44.2877 35.6273 44.1247C35.8366 43.8614 36.1619 43.5961 36.3799 43.3611C47.3519 31.5836 57.9974 20.1315 68.3165 9.00459C68.3416 8.97726 68.3715 8.95558 68.4044 8.94078C68.4374 8.92598 68.4728 8.91837 68.5085 8.91837C68.5443 8.91837 68.5798 8.92598 68.6129 8.94078C68.6461 8.95558 68.6762 8.97726 68.7016 9.00459L86.9373 28.6604Z" fill="#009D56"/>
<path d="M123.492 60.3041C123.329 60.4658 123.507 60.011 123.492 60.3041C124.489 59.3187 126.412 58.0897 127.406 57.0362C128.5 55.8765 129.566 54.7351 130.604 53.6121C130.726 53.4794 130.842 53.3424 130.951 53.2009C131.069 53.0455 131.19 52.9122 131.313 52.8011L142.415 64.6992C142.528 64.8204 142.64 64.8204 142.753 64.6992L160.864 45.2177C160.96 45.1141 160.96 45.0111 160.864 44.9088L142.64 25.3268C142.631 25.3171 142.62 25.3094 142.609 25.3041C142.597 25.2988 142.584 25.2961 142.572 25.2961C142.559 25.2961 142.546 25.2988 142.534 25.3041C142.523 25.3094 142.512 25.3171 142.503 25.3268L131.288 37.3917C131.077 37.5231 130.86 37.7094 130.636 37.9507C126.18 42.765 121.716 47.5705 117.243 52.3671C116.96 52.669 116.74 52.7954 116.583 52.7461L109.663 45.3029C109.639 45.2781 109.621 45.2487 109.608 45.2163C109.596 45.184 109.589 45.1493 109.589 45.1142C109.589 45.0792 109.595 45.0445 109.608 45.0122C109.62 44.9799 109.638 44.9505 109.661 44.9258L116.953 37.0866C117.154 36.9641 117.345 36.8062 117.526 36.6129C118.496 35.5732 119.459 34.5241 120.413 33.4655C120.638 33.2153 121.256 32.5591 122.266 31.4967C122.889 30.8398 123.487 30.1601 124.06 29.4577L142.398 9.71283C142.435 9.67208 142.486 9.64901 142.54 9.64866C142.593 9.6483 142.644 9.67069 142.682 9.71094L175.544 44.9448C175.557 44.9593 175.566 44.9778 175.57 44.9977C175.573 45.0177 175.571 45.0383 175.563 45.0566C175.479 45.2524 175.347 45.4469 175.169 45.6402C170.253 50.951 165.304 56.2637 160.324 61.5783C158.297 63.7422 156.567 65.6201 155.135 67.2118C154.541 67.8731 153.89 68.489 153.296 69.1446C151.919 70.6669 150.489 72.2099 149.004 73.7739C146.881 76.0061 144.842 78.3065 142.728 80.4894C142.692 80.5257 142.645 80.5456 142.595 80.5449C142.546 80.5442 142.499 80.523 142.464 80.4856L123.492 60.3041Z" fill="#00529B"/>
<path d="M123.985 28.7002C123.412 29.4026 122.814 30.0823 122.192 30.7392C121.181 31.8016 120.564 32.4578 120.339 32.708C119.384 33.7666 118.422 34.8157 117.451 35.8554C117.271 36.0487 117.08 36.2066 116.878 36.3291C116.802 36.3493 116.737 36.3588 116.683 36.3575C116.624 36.355 116.573 36.3298 116.528 36.2818C113.879 33.404 111.226 30.5402 108.568 27.6903C107.612 26.6651 106.615 25.7025 105.699 24.6508C105.675 24.6235 105.646 24.6016 105.615 24.5864C105.583 24.5712 105.549 24.563 105.514 24.5623C105.479 24.5616 105.445 24.5684 105.412 24.5823C105.38 24.5962 105.351 24.6169 105.326 24.6432L94.2572 36.5054C87.5802 43.735 82.8228 48.8664 79.9848 51.8996C79.8934 51.9956 79.7961 52.0587 79.6929 52.0891L72.5822 44.4336C72.5709 44.4215 72.5618 44.407 72.5557 44.3911C72.5495 44.3751 72.5463 44.358 72.5463 44.3408C72.5463 44.3235 72.5495 44.3064 72.5557 44.2905C72.5618 44.2745 72.5709 44.2601 72.5822 44.2479C74.9103 41.753 77.2342 39.2542 79.554 36.7517C79.6443 36.6532 79.6994 36.5565 79.7193 36.4618C79.8248 36.4201 79.9233 36.35 80.0147 36.2514C82.2748 33.7918 84.5477 31.3462 86.8335 28.9144C86.9015 28.8424 86.9361 28.7577 86.9373 28.6604C87.0521 28.6478 87.1606 28.5865 87.2626 28.4766C93.2796 21.9834 99.3036 15.4953 105.335 9.01218C105.356 8.98936 105.382 8.97337 105.412 8.966C105.441 8.95863 105.471 8.96019 105.5 8.97049C105.678 9.03618 105.832 9.14546 105.962 9.29831C106.768 10.2458 107.606 11.0719 108.428 11.9569C113.598 17.5165 118.784 23.0976 123.985 28.7002Z" fill="#9A9B9F"/>
<path d="M131.214 36.6342L138.363 44.2176C138.385 44.2408 138.397 44.2723 138.398 44.3053C138.398 44.3383 138.386 44.3701 138.365 44.3938L131.238 52.0435C131.115 52.1547 130.995 52.288 130.876 52.4434C130.767 52.5849 130.652 52.7219 130.53 52.8546C129.491 53.9776 128.425 55.119 127.331 56.2787C126.338 57.3322 125.367 58.4805 124.37 59.4659C124.207 59.6276 124.118 59.855 124.103 60.1481C123.989 60.0495 123.873 60.059 123.755 60.1765C123.052 60.8675 122 61.983 120.601 63.5229C119.753 64.4552 118.923 65.3489 118.109 66.2042C115.974 68.4458 113.935 70.714 111.837 72.9406C109.868 75.0325 107.738 77.4163 105.475 79.7338C105.453 79.7567 105.424 79.7693 105.393 79.7689C105.362 79.7686 105.332 79.7553 105.31 79.7319L86.939 60.0419C89.2635 57.4118 91.6912 54.8196 94.222 52.2653L105.261 64.0951C105.358 64.2 105.455 64.2 105.553 64.0951C109.204 60.1727 112.827 56.2717 116.421 52.3922C116.464 52.3467 116.492 52.2911 116.504 52.2255C116.515 52.1547 116.517 52.0758 116.509 51.9886C116.666 52.0379 116.886 51.9115 117.168 51.6096C121.641 46.813 126.106 42.0075 130.562 37.1932C130.785 36.9519 131.003 36.7656 131.214 36.6342Z" fill="#9A9B9F"/>
<path d="M61.3834 109.332C59.2793 108.439 57.678 107.022 56.5797 105.082C55.3471 102.905 54.969 100.71 55.0341 98.2167C55.1062 95.452 56.0803 92.6798 57.8843 90.7583C60.8454 87.6071 65.308 86.6369 69.2449 87.9027C74.2298 89.5058 76.8462 93.9153 76.6616 99.3839C76.5948 101.358 76.1358 103.149 75.2848 104.756C73.6267 107.884 70.5672 109.836 67.2404 110.09C65.243 110.242 63.3193 110.153 61.3834 109.332ZM71.0929 106.096C72.6895 103.594 72.9427 100.671 72.8354 97.671C72.6877 93.5192 70.7694 89.0188 66.4158 88.6683C62.1923 88.3272 59.6181 91.7191 59.0325 95.8613C58.6785 98.3689 58.7623 100.748 59.284 102.998C59.9838 106.016 61.9197 108.468 64.8315 108.91C67.2985 109.283 69.6898 108.298 71.0929 106.096Z" fill="#00529B"/>
<path d="M84.4492 98.9898C84.4539 101.463 84.458 104.014 84.4615 106.643C84.465 108.728 85.6994 109.048 87.2995 109.103C87.3271 109.104 87.3543 109.111 87.3794 109.123C87.4045 109.136 87.427 109.154 87.4455 109.176C87.4641 109.198 87.4783 109.224 87.4874 109.252C87.4964 109.28 87.5001 109.31 87.4982 109.34L87.4841 109.611C87.4794 109.699 87.436 109.743 87.354 109.743L78.3285 109.732C78.1983 109.731 78.1356 109.66 78.1403 109.52L78.1456 109.338C78.1503 109.203 78.2148 109.128 78.339 109.112C79.3325 108.993 80.5369 108.953 80.8693 107.733C80.9841 107.307 81.0416 106.864 81.0416 106.403C81.0439 101.476 81.0439 96.4412 81.0416 91.2984C81.0416 90.6377 80.9443 90.0654 80.7497 89.5816C80.4015 88.7156 79.0793 88.5281 78.332 88.5299C78.3086 88.5302 78.2854 88.5254 78.2638 88.5157C78.2422 88.506 78.2227 88.4917 78.2064 88.4736C78.1901 88.4555 78.1774 88.434 78.1691 88.4105C78.1608 88.387 78.1569 88.3618 78.1579 88.3367L78.1685 88.0278C78.1731 87.9128 78.2288 87.8554 78.3355 87.8554L95.6955 87.8478C95.7494 87.8478 95.7764 87.8768 95.7764 87.9349L95.8415 92.4467C95.8426 92.5364 95.8016 92.5794 95.7184 92.5756L95.0766 92.5547C95.0039 92.5522 94.9605 92.513 94.9465 92.4372C94.681 90.9649 94.3117 89.7541 92.8294 89.3997C92.1917 89.2468 91.615 89.1692 91.0992 89.1666C89.0982 89.1565 87.0961 89.1616 85.0928 89.1818C84.9255 89.1838 84.7656 89.2567 84.6478 89.3847C84.53 89.5127 84.4637 89.6856 84.4633 89.8659L84.4563 97.4C84.4563 97.5175 84.5108 97.5762 84.6198 97.5762C86.2585 97.5648 87.841 97.5573 89.3673 97.5535C90.0331 97.5522 90.6456 97.472 91.2047 97.3128C92.3459 96.9869 92.7134 95.7855 92.8101 94.6429C92.8183 94.5393 92.871 94.4844 92.9683 94.478L93.531 94.4458C93.6271 94.4395 93.6752 94.4882 93.6752 94.5917V101.938C93.6752 102.061 93.6189 102.121 93.5064 102.12L92.9824 102.116C92.8757 102.116 92.8189 102.06 92.8119 101.946C92.7345 100.881 92.3283 99.492 91.2487 99.2191C90.6309 99.0612 89.954 98.9835 89.2178 98.986C87.8323 98.9886 86.4936 98.974 85.2018 98.9424C84.9896 98.9374 84.771 98.9216 84.5459 98.8951C84.4815 98.8875 84.4492 98.9191 84.4492 98.9898Z" fill="#00529B"/>
<path d="M102.875 100.322C102.874 102.419 102.883 104.506 102.903 106.583C102.913 107.547 103.114 108.555 104.109 108.838C104.599 108.977 105.166 109.078 105.809 109.141C105.951 109.155 106.022 109.239 106.022 109.393V109.45C106.021 109.645 105.929 109.743 105.746 109.743L96.8824 109.73C96.7558 109.73 96.6843 109.663 96.6679 109.527C96.6655 109.505 96.6644 109.481 96.6644 109.457C96.6655 109.253 96.7605 109.136 96.9492 109.107C97.9269 108.951 99.2368 108.866 99.4003 107.515C99.473 106.92 99.5099 106.28 99.5111 105.594C99.5193 100.484 99.5146 95.8095 99.497 91.5713C99.4918 90.3282 99.5146 89.1022 98.1871 88.7611C97.7393 88.6462 97.3179 88.5697 96.9228 88.5318C96.7646 88.5154 96.6808 88.4219 96.6714 88.2514L96.6591 88.0259C96.6532 87.9109 96.7036 87.8535 96.8103 87.8535C100.062 87.856 103.166 87.8579 106.122 87.8591C107.771 87.8604 109.376 88.2236 110.939 88.9487C113.557 90.1633 114.768 92.7669 113.815 95.7628C113.159 97.8282 111.139 99.346 109.236 99.7989C107.309 100.256 105.247 100.374 103.049 100.151C102.933 100.14 102.875 100.197 102.875 100.322ZM102.908 89.6688L102.866 98.3398C102.866 98.4063 102.878 98.4721 102.901 98.5336C102.924 98.5951 102.959 98.651 103.002 98.6982C103.046 98.7453 103.097 98.7828 103.154 98.8085C103.211 98.8341 103.272 98.8474 103.334 98.8477L105.704 98.8609C106.967 98.8679 108.181 98.398 109.078 97.5548C109.975 96.7115 110.483 95.5639 110.488 94.3643L110.492 93.7277C110.495 93.1336 110.374 92.5447 110.138 91.9946C109.901 91.4445 109.552 90.9438 109.112 90.5214C108.672 90.0989 108.148 89.7628 107.571 89.5323C106.994 89.3018 106.375 89.1814 105.75 89.178L103.379 89.1647C103.318 89.1645 103.257 89.1773 103.2 89.2025C103.143 89.2277 103.091 89.2648 103.047 89.3116C103.003 89.3584 102.968 89.414 102.945 89.4753C102.921 89.5366 102.908 89.6023 102.908 89.6688Z" fill="#00529B"/>
<path d="M121.29 100.312C121.266 102.61 121.273 104.688 121.309 106.545C121.327 107.464 121.455 108.493 122.354 108.79C122.862 108.961 123.515 109.085 124.311 109.162C124.437 109.174 124.498 109.249 124.494 109.387L124.492 109.452C124.489 109.531 124.459 109.606 124.406 109.661C124.353 109.716 124.282 109.747 124.209 109.747L115.252 109.728C115.181 109.728 115.132 109.694 115.102 109.626C114.98 109.342 115.062 109.169 115.348 109.107C115.699 109.031 116.048 108.965 116.396 108.908C117.636 108.709 117.877 107.706 117.879 106.549C117.881 101.29 117.881 96.1058 117.879 90.9971C117.879 90.1103 117.662 89.0871 116.796 88.8237C116.334 88.6822 115.857 88.5849 115.364 88.5318C115.29 88.5241 115.221 88.4903 115.166 88.4358C115.112 88.3812 115.077 88.309 115.065 88.2306C115.054 88.1459 115.06 88.0632 115.085 87.9823C115.113 87.8914 115.171 87.8459 115.261 87.8459C118.139 87.8712 120.978 87.8686 123.776 87.8383C126.544 87.8099 130.767 88.5432 132.063 91.5902C133.329 94.5652 131.931 97.6255 129.371 99.1225C128.581 99.5836 127.503 99.9038 126.138 100.083C124.622 100.28 123.06 100.304 121.452 100.153C121.345 100.144 121.291 100.198 121.29 100.312ZM121.304 89.6934L121.262 98.3266C121.261 98.3958 121.274 98.4643 121.298 98.5283C121.323 98.5923 121.358 98.6506 121.404 98.6997C121.449 98.7488 121.503 98.7878 121.562 98.8145C121.621 98.8412 121.685 98.855 121.749 98.8553L124.061 98.8686C125.336 98.8756 126.562 98.4074 127.468 97.5669C128.373 96.7265 128.885 95.5827 128.891 94.3871L128.895 93.7163C128.897 93.1243 128.776 92.5374 128.537 91.9891C128.298 91.4408 127.946 90.9419 127.501 90.5208C127.056 90.0998 126.528 89.7648 125.945 89.535C125.363 89.3053 124.738 89.1853 124.107 89.1818L121.794 89.1685C121.73 89.1683 121.667 89.1817 121.607 89.2079C121.548 89.2341 121.494 89.2727 121.448 89.3215C121.403 89.3702 121.367 89.4282 121.342 89.492C121.317 89.5558 121.304 89.6242 121.304 89.6934Z" fill="#00529B"/>
<path d="M144.966 89.2652C144.921 89.2657 144.879 89.2851 144.848 89.3191C144.816 89.3532 144.799 89.3992 144.799 89.4471C144.799 94.7667 144.798 100.518 144.797 106.7C144.797 107.642 145.149 108.606 146.065 108.841C146.583 108.974 147.141 109.067 147.74 109.12C147.902 109.134 147.977 109.227 147.964 109.4L147.955 109.507C147.943 109.664 147.864 109.743 147.718 109.743L138.456 109.734C138.32 109.734 138.245 109.661 138.23 109.514L138.223 109.459C138.198 109.222 138.296 109.093 138.516 109.074C139.879 108.959 141.316 108.917 141.319 106.947C141.328 100.875 141.33 95.0099 141.324 89.3504C141.324 89.2847 141.294 89.2525 141.235 89.2538C139.846 89.2784 138.332 89.1534 136.976 89.5191C136.526 89.6404 136.158 89.821 135.872 90.061C135.01 90.7849 134.627 92.1322 134.407 93.3013C134.4 93.3364 134.384 93.3685 134.36 93.3932C134.336 93.4179 134.306 93.4341 134.273 93.4396L133.79 93.5211C133.637 93.5477 133.562 93.4775 133.563 93.3108C133.582 91.3654 133.639 89.5822 133.734 87.9615C133.737 87.8882 133.773 87.8516 133.843 87.8516L152.207 87.8497C152.355 87.8497 152.433 87.9299 152.439 88.0903L152.599 93.1402C152.607 93.3878 152.496 93.5129 152.266 93.5154L152.152 93.5173C151.907 93.5211 151.762 93.3935 151.718 93.1346C151.473 91.7134 150.89 90.1046 149.543 89.629C148.196 89.1515 146.364 89.25 144.966 89.2652Z" fill="#00529B"/>
</g>
<defs>
<clipPath id="clip0_25_179">
<rect width="211" height="119" fill="white"/>
</clipPath>
</defs>
</svg>
